<svg xmlns="http://www.w3.org/2000/svg" viewBox="0 9.470000267028809 123.77999877929688 35.78999710083008" data-asc="0.9052734375" width="123.77999877929688" height="35.78999710083008"><defs/><g fill="#000000"><g transform="translate(0, 0)"><path d="M0 45.26L0 9.47L24.15 9.47L24.15 13.70L4.74 13.70L4.74 24.78L21.53 24.78L21.53 29.00L4.74 29.00L4.74 45.26L0 45.26ZM45.00 45.26L45.00 9.47L49.73 9.47L49.73 45.26L45.00 45.26ZM58.03 45.26L58.03 9.47L62.89 9.47L81.69 37.57L81.69 9.47L86.23 9.47L86.23 45.26L81.37 45.26L62.57 17.14L62.57 45.26L58.03 45.26ZM94.19 45.26L94.19 9.47L106.52 9.47Q110.69 9.47 112.89 9.99Q115.97 10.69 118.14 12.55Q120.97 14.94 122.38 18.66Q123.78 22.39 123.78 27.17Q123.78 31.25 122.83 34.40Q121.88 37.55 120.39 39.61Q118.90 41.67 117.13 42.86Q115.36 44.04 112.85 44.65Q110.35 45.26 107.10 45.26L94.19 45.26M98.93 41.04L106.57 41.04Q110.11 41.04 112.12 40.38Q114.14 39.72 115.33 38.53Q117.02 36.84 117.96 34.00Q118.90 31.15 118.90 27.10Q118.90 21.48 117.05 18.47Q115.21 15.45 112.57 14.43Q110.67 13.70 106.45 13.70L98.93 13.70L98.93 41.04Z"/></g></g></svg>